<svg version="1" xmlns="http://www.w3.org/2000/svg" width="346.667" height="346.667" viewBox="0 0 260.000000 260.000000"><path d="M212.6 1.5c-.3.8.6 2.8 2 4.4 3.2 3.8 10.3 5.4 24.1 5.3h10.2l.1 8.1c.2 13.3.7 21.1 1.4 23.4.7 2.3 6.8 4.9 8.6 3.8.6-.4 1-9.1 1-23.6V0h-23.4c-19.7 0-23.5.2-24 1.5zM43.3 13.8l-2.3.3V152h24.9c31.4 0 39.9-1.4 51.2-8.6 2.2-1.3 3.9-2.3 4-2.2 0 .2.2 1.8.5 3.7.7 5.3 4.7 13.2 8.9 17.5 7.7 7.8 20.7 14.2 38 18.6 17 4.3 26.2 9.8 29.7 17.8 4.9 11 .6 21.4-11.2 27-7.5 3.6-22.5 4.1-31.4 1.1-11.4-3.9-18-10.8-19.2-20.1l-.7-4.9-9.1.3-9.1.3.3 4.5c.9 14.9 12.4 27.3 31.2 33.9 9.5 3.3 27.7 3.9 38.4 1.1 14.7-3.7 25.6-12.1 29.6-22.7 3.1-8.2 2.5-20.6-1.3-28-6.3-12.2-18.8-20.2-41.6-26.7-21.9-6.3-30.7-11.8-32.9-20.8-1.3-5.2-.9-8.7 2-14.6 3.9-8.2 12.2-12.1 26.2-12.3 10.7-.1 17.9 2.5 23.4 8.5 3.8 4.1 7.2 12 7.2 16.7 0 1.5 1.1 1.7 8.8 1.7 4.8-.1 9-.2 9.3-.4.3-.2.2-2.9-.3-6.1-2.5-16.2-15-29.2-32.4-33.8-10.8-2.9-29.5-1.9-38.9 2.1-3.9 1.6-4.6.8-3.4-4.3.4-1.8.6-11.7.4-22-.2-17.4-.4-19.4-2.9-26.6-7.3-21.5-24.3-35.5-46.5-38.3-5.6-.7-46.6-1.2-50.8-.6zM96 30.3c14.2 4.1 25 16.8 27.9 32.7 1.6 8.8.7 38.4-1.3 45.2-4.5 15.1-16.3 25.8-31.2 28.3-2.6.4-25.9.9-30.1.6-1-.1-1.3-11.6-1.3-53.9 0-29.6.2-54.1.5-54.3 1.2-1.3 30.3-.1 35.5 1.4zM2.2 215c-2.2.9-2.2 1.1-2.2 23v22h24.5c15.6 0 24.5-.4 24.6-1 .1-.6.2-1.6.3-2.3.7-4.5-18.8-11.2-24.6-8.5-.9.4-1.9.4-2.2 0-.4-.7-5.6-.8-8.2-.1-.5.2-1.9 0-3.1-.5-2.2-.7-2.3-1.1-1.7-7.9.6-7.4.6-18.8.1-22-.6-3.3-3.4-4.3-7.5-2.7z"/></svg>